<svg xmlns="http://www.w3.org/2000/svg" xmlns:xlink="http://www.w3.org/1999/xlink" width="24" height="24" viewBox="0 0 24 24"><defs><style>.a{fill:#253c87;}.b{clip-path:url(#a);}</style><clipPath id="a"><rect class="a" width="24" height="24" transform="translate(-642 3201)"/></clipPath></defs><g class="b" transform="translate(642 -3201)"><path class="a" d="M22.462,22.452H20.935V3.484a.774.774,0,0,0-.774-.774H14.355V.774A.774.774,0,0,0,13.581,0H8.21a.774.774,0,0,0-.774.774V2.71H6.806a.774.774,0,0,0-.774.774V22.452H4.506a.788.788,0,0,0-.8.737A.774.774,0,0,0,4.484,24H10a.387.387,0,0,0,.387-.387V19.161H10.07a.789.789,0,0,1-.8-.737.774.774,0,0,1,.773-.812H16.9a.789.789,0,0,1,.8.737.774.774,0,0,1-.773.812h-.339v4.452a.387.387,0,0,0,.387.387h5.516a.774.774,0,0,0,.773-.811A.788.788,0,0,0,22.462,22.452ZM11.6,16.016h-.871a.774.774,0,1,1,0-1.548H11.6a.774.774,0,1,1,0,1.548Zm0-2.9h-.871a.774.774,0,1,1,0-1.548H11.6a.774.774,0,1,1,0,1.548Zm0-2.9h-.871a.774.774,0,1,1,0-1.548H11.6a.774.774,0,1,1,0,1.548Zm0-2.9h-.871a.774.774,0,1,1,0-1.548H11.6a.774.774,0,1,1,0,1.548Zm4.6,8.71h-.871a.774.774,0,1,1,0-1.548h.871a.774.774,0,0,1,0,1.548Zm0-2.9h-.871a.774.774,0,1,1,0-1.548h.871a.774.774,0,0,1,0,1.548Zm0-2.9h-.871a.774.774,0,1,1,0-1.548h.871a.774.774,0,0,1,0,1.548Zm0-2.9h-.871a.774.774,0,1,1,0-1.548h.871a.774.774,0,0,1,0,1.548ZM11.935,23.613V19.548a.387.387,0,0,1,.387-.387h2.323a.387.387,0,0,1,.387.387v4.065a.387.387,0,0,1-.387.387H12.323A.387.387,0,0,1,11.935,23.613Z" transform="translate(-643.484 3201)"/></g></svg>