<svg xmlns="http://www.w3.org/2000/svg" width="20.995" height="14.081" viewBox="0 0 20.995 14.081"><defs><style>.a{fill:#232323;}</style></defs><g transform="translate(31.54 66.545) rotate(180)"><path class="a" d="M92.9,113.75v-4.807l-.354-.737L91.954,108a.943.943,0,0,0-.943.943v4.807a2.953,2.953,0,0,0,0,5.6v1.79a.943.943,0,1,0,1.886,0v-1.79a2.953,2.953,0,0,0,0-5.6Zm-.943,3.868a1.069,1.069,0,1,1,1.069-1.069A1.07,1.07,0,0,1,91.954,117.618Z" transform="translate(-78.455 -55.536)"/><path class="a" d="M212.9,110.732v-1.79a.943.943,0,1,0-1.886,0v1.79a2.953,2.953,0,0,0,0,5.6v4.807a.943.943,0,1,0,1.886,0v-4.807a2.953,2.953,0,0,0,0-5.6Zm-.943,3.868a1.069,1.069,0,1,1,1.069-1.069A1.07,1.07,0,0,1,211.954,114.6Z" transform="translate(-190.912 -55.536)"/><path class="a" d="M332.9,113.75v-4.807a.943.943,0,1,0-1.886,0v4.807a2.953,2.953,0,0,0,0,5.6v1.79a.943.943,0,1,0,1.886,0v-1.79a2.953,2.953,0,0,0,0-5.6Zm-.943,3.868a1.069,1.069,0,1,1,1.069-1.069A1.07,1.07,0,0,1,331.954,117.618Z" transform="translate(-303.369 -55.536)"/></g></svg>