<svg xmlns="http://www.w3.org/2000/svg" xmlns:xlink="http://www.w3.org/1999/xlink" width="24" height="24" viewBox="0 0 24 24"><defs><style>.a{fill:#253c87;}.b{clip-path:url(#a);}</style><clipPath id="a"><rect class="a" width="24" height="24" transform="translate(-558 3201)"/></clipPath></defs><g class="b" transform="translate(558 -3201)"><g transform="translate(-558 3203)"><path class="a" d="M20.333,7.833a1,1,0,0,1-1-1v-1.5h-4v1.5a1,1,0,1,1-2,0v-1.5a2,2,0,0,1,2-2h4a2,2,0,0,1,2,2v1.5A1,1,0,0,1,20.333,7.833Z" transform="translate(-5.333 -3.333)"/><path class="a" d="M12.71,23.127a2.06,2.06,0,0,1-.71.12,2.191,2.191,0,0,1-.77-.14L0,19.367V27a2.748,2.748,0,0,0,2.75,2.75h18.5A2.748,2.748,0,0,0,24,27v-7.63Z" transform="translate(0 -9.747)"/><path class="a" d="M24,11.083v2.29l-11.76,3.92a.74.74,0,0,1-.48,0L0,13.373v-2.29a2.748,2.748,0,0,1,2.75-2.75h18.5A2.748,2.748,0,0,1,24,11.083Z" transform="translate(0 -5.333)"/></g></g></svg>