<svg xmlns="http://www.w3.org/2000/svg" xmlns:xlink="http://www.w3.org/1999/xlink" width="24" height="24" viewBox="0 0 24 24"><defs><style>.a{fill:#253c87;}.b{clip-path:url(#a);}</style><clipPath id="a"><rect class="a" width="24" height="24" transform="translate(-485 3194)"/></clipPath></defs><g class="b" transform="translate(485 -3194)"><g transform="translate(-485 3194.921)"><g transform="translate(0.304 0)"><path class="a" d="M23.91,9.451a1.17,1.17,0,0,0-.234-.217L12.905,1.759a1.214,1.214,0,0,0-1.4,0L.741,9.234a1.14,1.14,0,0,0-.234.211L4.652,14.3V7.379a.589.589,0,0,1,.574-.6H19.18a.6.6,0,0,1,.574.6v7.083Z" transform="translate(-0.507 -1.535)"/></g><g transform="translate(5.62 6.411)"><path class="a" d="M22.127,20.141v-7.92H9.366v7.721l2.47,2.892,2.734-1.54a2.406,2.406,0,0,1,2.353,0l2.909,1.639,2.3-2.78C22.133,20.147,22.127,20.147,22.127,20.141Zm-5.8-.258v.357a.585.585,0,1,1-1.171,0v-.357a1.894,1.894,0,0,1-1.311-1.8.585.585,0,1,1,1.171,0,.729.729,0,1,0,.726-.732,1.9,1.9,0,0,1-.585-3.705v-.375a.585.585,0,1,1,1.171,0v.375a1.894,1.894,0,0,1,1.311,1.8.585.585,0,1,1-1.171,0,.723.723,0,1,0-.726.732,1.9,1.9,0,0,1,.585,3.705Z" transform="translate(-9.366 -12.221)"/></g><g transform="translate(0 9.361)"><path class="a" d="M4.578,22.494,0,17.138v11.59a1.189,1.189,0,0,0,.129.55l6.913-3.9Z" transform="translate(0 -17.138)"/></g><g transform="translate(1.305 16.338)"><path class="a" d="M16.892,30.833l-3.407-1.908a1.256,1.256,0,0,0-1.212-.006l-10.1,5.666h21.4Z" transform="translate(-2.176 -28.766)"/></g><g transform="translate(17.128 9.397)"><path class="a" d="M28.546,25.509,35.29,29.3a1.266,1.266,0,0,0,.129-.55V17.2Z" transform="translate(-28.546 -17.196)"/></g></g></g></svg>